<svg width="170" height="96" viewBox="0 0 170 96" fill="none" xmlns="http://www.w3.org/2000/svg">
<g filter="url(#filter0_bd_0_339)">
<mask id="path-1-inside-1_0_339" fill="white">
<path fill-rule="evenodd" clip-rule="evenodd" d="M0.871948 4.36808C0 6.07937 0 8.31958 0 12.8V75.2C0 79.6804 0 81.9206 0.871948 83.6319C1.63893 85.1372 2.86278 86.3611 4.36808 87.1281C6.07937 88 8.31958 88 12.8 88H77L85 96L93 88H157.2C161.68 88 163.921 88 165.632 87.1281C167.137 86.3611 168.361 85.1372 169.128 83.6319C170 81.9206 170 79.6804 170 75.2V12.8C170 8.31958 170 6.07937 169.128 4.36808C168.361 2.86278 167.137 1.63893 165.632 0.871948C163.921 0 161.68 0 157.2 0H12.8C8.31958 0 6.07937 0 4.36808 0.871948C2.86278 1.63893 1.63893 2.86278 0.871948 4.36808Z"/>
</mask>
<path fill-rule="evenodd" clip-rule="evenodd" d="M0.871948 4.36808C0 6.07937 0 8.31958 0 12.8V75.2C0 79.6804 0 81.9206 0.871948 83.6319C1.63893 85.1372 2.86278 86.3611 4.36808 87.1281C6.07937 88 8.31958 88 12.8 88H77L85 96L93 88H157.2C161.68 88 163.921 88 165.632 87.1281C167.137 86.3611 168.361 85.1372 169.128 83.6319C170 81.9206 170 79.6804 170 75.2V12.8C170 8.31958 170 6.07937 169.128 4.36808C168.361 2.86278 167.137 1.63893 165.632 0.871948C163.921 0 161.68 0 157.2 0H12.8C8.31958 0 6.07937 0 4.36808 0.871948C2.86278 1.63893 1.63893 2.86278 0.871948 4.36808Z" fill="#ED3A4E" fill-opacity="0.5"/>
<path d="M0.871948 4.36808L-0.0190586 3.91409H-0.0190587L0.871948 4.36808ZM0.871948 83.6319L-0.0190589 84.0859L-0.0190584 84.0859L0.871948 83.6319ZM4.36808 87.1281L4.82207 86.237H4.82206L4.36808 87.1281ZM77 88L77.7071 87.2929L77.4142 87H77V88ZM85 96L84.2929 96.7071L85 97.4142L85.7071 96.7071L85 96ZM93 88V87H92.5858L92.2929 87.2929L93 88ZM165.632 87.1281L166.086 88.0191L165.632 87.1281ZM169.128 83.6319L168.237 83.1779L169.128 83.6319ZM169.128 4.36808L168.237 4.82206V4.82207L169.128 4.36808ZM165.632 0.871948L166.086 -0.0190584V-0.0190597L165.632 0.871948ZM4.36808 0.871948L3.91409 -0.0190586V-0.0190586L4.36808 0.871948ZM1 12.8C1 10.5433 1.00078 8.9109 1.10567 7.62705C1.20961 6.35487 1.41078 5.51325 1.76295 4.82207L-0.0190587 3.91409C-0.538833 4.9342 -0.773639 6.06833 -0.887685 7.46418C-1.00078 8.84837 -1 10.5763 -1 12.8H1ZM1 75.2V12.8H-1V75.2H1ZM1.76295 83.1779C1.41078 82.4868 1.20961 81.6451 1.10567 80.373C1.00078 79.0891 1 77.4567 1 75.2H-1C-1 77.4237 -1.00078 79.1516 -0.887685 80.5358C-0.773639 81.9317 -0.538833 83.0658 -0.0190589 84.0859L1.76295 83.1779ZM4.82206 86.237C3.50493 85.5659 2.43407 84.4951 1.76295 83.1779L-0.0190584 84.0859C0.843802 85.7794 2.22063 87.1562 3.91409 88.0191L4.82206 86.237ZM12.8 87C10.5433 87 8.9109 86.9992 7.62705 86.8943C6.35487 86.7904 5.51325 86.5892 4.82207 86.237L3.91409 88.0191C4.9342 88.5388 6.06833 88.7736 7.46418 88.8877C8.84837 89.0008 10.5763 89 12.8 89V87ZM77 87H12.8V89H77V87ZM76.2929 88.7071L84.2929 96.7071L85.7071 95.2929L77.7071 87.2929L76.2929 88.7071ZM85.7071 96.7071L93.7071 88.7071L92.2929 87.2929L84.2929 95.2929L85.7071 96.7071ZM157.2 87H93V89H157.2V87ZM165.178 86.237C164.487 86.5892 163.645 86.7904 162.373 86.8943C161.089 86.9992 159.457 87 157.2 87V89C159.424 89 161.152 89.0008 162.536 88.8877C163.932 88.7736 165.066 88.5388 166.086 88.0191L165.178 86.237ZM168.237 83.1779C167.566 84.4951 166.495 85.5659 165.178 86.237L166.086 88.0191C167.779 87.1562 169.156 85.7794 170.019 84.0859L168.237 83.1779ZM169 75.2C169 77.4567 168.999 79.0891 168.894 80.373C168.79 81.6451 168.589 82.4868 168.237 83.1779L170.019 84.0859C170.539 83.0658 170.774 81.9317 170.888 80.5358C171.001 79.1516 171 77.4237 171 75.2H169ZM169 12.8V75.2H171V12.8H169ZM168.237 4.82207C168.589 5.51325 168.79 6.35487 168.894 7.62705C168.999 8.9109 169 10.5433 169 12.8H171C171 10.5763 171.001 8.84837 170.888 7.46418C170.774 6.06833 170.539 4.9342 170.019 3.91409L168.237 4.82207ZM165.178 1.76295C166.495 2.43407 167.566 3.50493 168.237 4.82206L170.019 3.91409C169.156 2.22063 167.779 0.843802 166.086 -0.0190584L165.178 1.76295ZM157.2 1C159.457 1 161.089 1.00078 162.373 1.10567C163.645 1.20961 164.487 1.41078 165.178 1.76296L166.086 -0.0190597C165.066 -0.538833 163.932 -0.773639 162.536 -0.887685C161.152 -1.00078 159.424 -1 157.2 -1V1ZM12.8 1H157.2V-1H12.8V1ZM4.82207 1.76295C5.51325 1.41078 6.35487 1.20961 7.62705 1.10567C8.9109 1.00078 10.5433 1 12.8 1V-1C10.5763 -1 8.84837 -1.00078 7.46418 -0.887685C6.06833 -0.773639 4.9342 -0.538833 3.91409 -0.0190587L4.82207 1.76295ZM1.76295 4.82207C2.43407 3.50493 3.50493 2.43407 4.82207 1.76295L3.91409 -0.0190586C2.22063 0.843802 0.843802 2.22063 -0.0190586 3.91409L1.76295 4.82207Z" fill="white" fill-opacity="0.160553" mask="url(#path-1-inside-1_0_339)"/>
</g>
<defs>
<filter id="filter0_bd_0_339" x="-24" y="-13.5914" width="218" height="145.591" filterUnits="userSpaceOnUse" color-interpolation-filters="sRGB">
<feFlood flood-opacity="0" result="BackgroundImageFix"/>
<feGaussianBlur in="BackgroundImage" stdDeviation="6.7957"/>
<feComposite in2="SourceAlpha" operator="in" result="effect1_backgroundBlur_0_339"/>
<feColorMatrix in="SourceAlpha" type="matrix" values="0 0 0 0 0 0 0 0 0 0 0 0 0 0 0 0 0 0 127 0" result="hardAlpha"/>
<feOffset dy="12"/>
<feGaussianBlur stdDeviation="12"/>
<feColorMatrix type="matrix" values="0 0 0 0 0.219608 0 0 0 0 0.0470588 0 0 0 0 0.0470588 0 0 0 0.158798 0"/>
<feBlend mode="normal" in2="effect1_backgroundBlur_0_339" result="effect2_dropShadow_0_339"/>
<feBlend mode="normal" in="SourceGraphic" in2="effect2_dropShadow_0_339" result="shape"/>
</filter>
</defs>
</svg>
